<svg width="26" height="26" viewBox="0 0 26 26" fill="none" xmlns="http://www.w3.org/2000/svg">
<path d="M13 24.25C15.4536 24.2495 17.8398 23.4467 19.795 21.9642C21.7501 20.4816 23.1669 18.4005 23.8295 16.038C24.4921 13.6755 24.3641 11.1612 23.4651 8.87811C22.5661 6.59507 20.9454 4.66854 18.8499 3.39211C16.7543 2.11568 14.299 1.55934 11.8579 1.80787C9.41688 2.05641 7.12402 3.09619 5.32875 4.76876C3.53349 6.44133 2.33426 8.65497 1.91383 11.0723C1.4934 13.4897 1.87482 15.9783 2.99996 18.1588L1.74996 24.25L7.84121 23C9.38621 23.7988 11.1412 24.25 13 24.25Z" stroke="#2D9CDB" stroke-width="1.875" stroke-linecap="round" stroke-linejoin="round"/>
<path d="M7.375 13H7.3875V13.0125H7.375V13ZM13 13H13.0125V13.0125H13V13ZM18.625 13H18.6375V13.0125H18.625V13Z" stroke="#2D9CDB" stroke-width="2.8125" stroke-linejoin="round"/>
</svg>
