<svg width="40" height="40" viewBox="0 0 40 40" fill="none" xmlns="http://www.w3.org/2000/svg">
<rect width="40" height="40" rx="3" fill="#FF4D4F"/>
<g clip-path="url(#clip0_5_9281)">
<path d="M11.0625 8.625C10.6315 8.625 10.2182 8.7962 9.91345 9.10095C9.6087 9.4057 9.4375 9.81902 9.4375 10.25V11.875C9.4375 12.306 9.6087 12.7193 9.91345 13.024C10.2182 13.3288 10.6315 13.5 11.0625 13.5H11.875V28.125C11.875 28.987 12.2174 29.8136 12.8269 30.4231C13.4364 31.0326 14.263 31.375 15.125 31.375H24.875C25.737 31.375 26.5636 31.0326 27.1731 30.4231C27.7826 29.8136 28.125 28.987 28.125 28.125V13.5H28.9375C29.3685 13.5 29.7818 13.3288 30.0865 13.024C30.3913 12.7193 30.5625 12.306 30.5625 11.875V10.25C30.5625 9.81902 30.3913 9.4057 30.0865 9.10095C29.7818 8.7962 29.3685 8.625 28.9375 8.625H23.25C23.25 8.19402 23.0788 7.7807 22.774 7.47595C22.4693 7.1712 22.056 7 21.625 7H18.375C17.944 7 17.5307 7.1712 17.226 7.47595C16.9212 7.7807 16.75 8.19402 16.75 8.625H11.0625ZM15.9375 15.125C16.153 15.125 16.3597 15.2106 16.512 15.363C16.6644 15.5153 16.75 15.722 16.75 15.9375V27.3125C16.75 27.528 16.6644 27.7347 16.512 27.887C16.3597 28.0394 16.153 28.125 15.9375 28.125C15.722 28.125 15.5153 28.0394 15.363 27.887C15.2106 27.7347 15.125 27.528 15.125 27.3125V15.9375C15.125 15.722 15.2106 15.5153 15.363 15.363C15.5153 15.2106 15.722 15.125 15.9375 15.125ZM20 15.125C20.2155 15.125 20.4222 15.2106 20.5745 15.363C20.7269 15.5153 20.8125 15.722 20.8125 15.9375V27.3125C20.8125 27.528 20.7269 27.7347 20.5745 27.887C20.4222 28.0394 20.2155 28.125 20 28.125C19.7845 28.125 19.5778 28.0394 19.4255 27.887C19.2731 27.7347 19.1875 27.528 19.1875 27.3125V15.9375C19.1875 15.722 19.2731 15.5153 19.4255 15.363C19.5778 15.2106 19.7845 15.125 20 15.125ZM24.875 15.9375V27.3125C24.875 27.528 24.7894 27.7347 24.637 27.887C24.4847 28.0394 24.278 28.125 24.0625 28.125C23.847 28.125 23.6403 28.0394 23.488 27.887C23.3356 27.7347 23.25 27.528 23.25 27.3125V15.9375C23.25 15.722 23.3356 15.5153 23.488 15.363C23.6403 15.2106 23.847 15.125 24.0625 15.125C24.278 15.125 24.4847 15.2106 24.637 15.363C24.7894 15.5153 24.875 15.722 24.875 15.9375Z" fill="white"/>
</g>
<defs>
<clipPath id="clip0_5_9281">
<rect width="26" height="26" fill="white" transform="translate(7 7)"/>
</clipPath>
</defs>
</svg>
