<svg width="40" height="40" viewBox="0 0 40 40" fill="none" xmlns="http://www.w3.org/2000/svg">
<rect width="40" height="40" rx="3" fill="#1890FF"/>
<path d="M29.3438 28.2266H10.6562C10.2068 28.2266 9.84375 28.5896 9.84375 29.0391V29.9531C9.84375 30.0648 9.93516 30.1562 10.0469 30.1562H29.9531C30.0648 30.1562 30.1562 30.0648 30.1562 29.9531V29.0391C30.1562 28.5896 29.7932 28.2266 29.3438 28.2266ZM13.5432 26.0938C13.5939 26.0938 13.6447 26.0887 13.6955 26.0811L17.9662 25.332C18.017 25.3219 18.0652 25.299 18.1008 25.2609L28.8639 14.4979C28.8874 14.4744 28.9061 14.4465 28.9188 14.4157C28.9316 14.385 28.9381 14.3521 28.9381 14.3188C28.9381 14.2856 28.9316 14.2527 28.9188 14.222C28.9061 14.1912 28.8874 14.1633 28.8639 14.1398L24.6439 9.91738C24.5957 9.86914 24.5322 9.84375 24.4637 9.84375C24.3951 9.84375 24.3316 9.86914 24.2834 9.91738L13.5203 20.6805C13.4822 20.7186 13.4594 20.7643 13.4492 20.815L12.7002 25.0857C12.6755 25.2218 12.6843 25.3618 12.7259 25.4936C12.7675 25.6254 12.8406 25.7452 12.9389 25.8424C13.1064 26.0049 13.3172 26.0938 13.5432 26.0938Z" fill="white"/>
</svg>
