<svg width="26" height="24" viewBox="0 0 26 24" fill="none" xmlns="http://www.w3.org/2000/svg">
<path d="M18.8594 0.984375C16.3984 0.984375 14.2586 2.09414 13 3.95391C11.7414 2.09414 9.60156 0.984375 7.14062 0.984375C5.27649 0.986546 3.48932 1.72803 2.17118 3.04618C0.853034 4.36432 0.111546 6.15149 0.109375 8.01562C0.109375 11.4375 2.24219 14.9988 6.44922 18.5988C8.37701 20.2415 10.4594 21.6936 12.6672 22.9348C12.7695 22.9897 12.8838 23.0185 13 23.0185C13.1162 23.0185 13.2305 22.9897 13.3328 22.9348C15.5406 21.6936 17.623 20.2415 19.5508 18.5988C23.7578 14.9988 25.8906 11.4375 25.8906 8.01562C25.8885 6.15149 25.147 4.36432 23.8288 3.04618C22.5107 1.72803 20.7235 0.986546 18.8594 0.984375ZM13 21.5051C11.077 20.3953 1.51562 14.5453 1.51562 8.01562C1.51718 6.52426 2.11031 5.09442 3.16486 4.03986C4.21942 2.98531 5.64926 2.39218 7.14062 2.39062C9.51719 2.39062 11.5129 3.65977 12.3496 5.70352C12.4026 5.83248 12.4927 5.94278 12.6085 6.0204C12.7243 6.09803 12.8606 6.13948 13 6.13948C13.1394 6.13948 13.2757 6.09803 13.3915 6.0204C13.5073 5.94278 13.5974 5.83248 13.6504 5.70352C14.4871 3.65977 16.4828 2.39062 18.8594 2.39062C20.3507 2.39218 21.7806 2.98531 22.8351 4.03986C23.8897 5.09442 24.4828 6.52426 24.4844 8.01562C24.4844 14.5453 14.923 20.3953 13 21.5051Z" fill="#2D9CDB"/>
</svg>
