<svg width="38" height="24" viewBox="0 0 38 24" fill="none" xmlns="http://www.w3.org/2000/svg">
<rect width="38" height="24" rx="12" fill="#1890FF"/>
<path d="M24.5628 15.4375H23.4644C23.3894 15.4375 23.3191 15.4703 23.2722 15.5281C23.1628 15.661 23.0457 15.7891 22.9222 15.911C22.4174 16.4163 21.8194 16.8191 21.1613 17.0969C20.4795 17.3849 19.7467 17.5326 19.0066 17.5313C18.2582 17.5313 17.5332 17.3844 16.8519 17.0969C16.1938 16.8191 15.5958 16.4163 15.091 15.911C14.5852 15.4073 14.1819 14.8104 13.9035 14.1531C13.6144 13.4719 13.4691 12.7485 13.4691 12C13.4691 11.2516 13.616 10.5281 13.9035 9.8469C14.1816 9.18909 14.5816 8.5969 15.091 8.08909C15.6003 7.58127 16.1925 7.18127 16.8519 6.90315C17.5332 6.61565 18.2582 6.46877 19.0066 6.46877C19.755 6.46877 20.48 6.61409 21.1613 6.90315C21.8207 7.18127 22.4128 7.58127 22.9222 8.08909C23.0457 8.21252 23.1613 8.34065 23.2722 8.4719C23.3191 8.52971 23.391 8.56252 23.4644 8.56252H24.5628C24.6613 8.56252 24.7222 8.45315 24.6675 8.37034C23.4691 6.50784 21.3722 5.27502 18.9894 5.28127C15.2457 5.29065 12.2441 8.32971 12.2816 12.0688C12.3191 15.7485 15.316 18.7188 19.0066 18.7188C21.3832 18.7188 23.4707 17.4875 24.6675 15.6297C24.7207 15.5469 24.6613 15.4375 24.5628 15.4375ZM25.9519 11.9016L23.7347 10.1516C23.6519 10.086 23.5316 10.1453 23.5316 10.25V11.4375H18.6253C18.5566 11.4375 18.5003 11.4938 18.5003 11.5625V12.4375C18.5003 12.5063 18.5566 12.5625 18.6253 12.5625H23.5316V13.75C23.5316 13.8547 23.6535 13.9141 23.7347 13.8485L25.9519 12.0985C25.9669 12.0868 25.9789 12.0718 25.9872 12.0548C25.9956 12.0377 25.9999 12.019 25.9999 12C25.9999 11.9811 25.9956 11.9623 25.9872 11.9453C25.9789 11.9282 25.9669 11.9133 25.9519 11.9016Z" fill="white"/>
</svg>
